<svg width="24" height="24" viewBox="0 0 24 24" fill="none" xmlns="http://www.w3.org/2000/svg">
    <path d="M11.625.072a1.121 1.121 0 0 0-.296.196c-.258.244-.29.352-.314 1.107l-.023.699-.432.084c-.825.169-1.72.549-2.499 1.064-.548.366-1.49 1.313-1.87 1.88A7.374 7.374 0 0 0 5.14 7.57c-.08.375-.095.67-.127 2.673-.038 2.485-.061 2.742-.352 3.615-.356 1.078-.891 1.917-1.772 2.799-.77.76-.854.924-.854 1.604 0 .417.014.496.127.73.248.503.74.873 1.299.98.36.067 16.724.067 17.1-.004a1.832 1.832 0 0 0 1.275-.975c.113-.235.127-.314.127-.732 0-.675-.094-.853-.812-1.56-.61-.601-.881-.943-1.21-1.497a6.717 6.717 0 0 1-.839-2.264c-.07-.361-.089-.863-.117-2.696-.028-2.007-.042-2.298-.126-2.673-.315-1.397-.91-2.471-1.932-3.498-1.013-1.008-2.171-1.646-3.489-1.913l-.431-.084-.023-.699C12.96.62 12.928.512 12.67.268a.991.991 0 0 0-1.045-.196zM8.343 21.073c0 .155.29.853.487 1.168.807 1.284 2.373 1.978 3.836 1.697a3.758 3.758 0 0 0 2.466-1.646c.207-.31.52-1.031.525-1.21 0-.075-.206-.08-3.657-.08-3.188 0-3.657.01-3.657.071z" fill="#0F1010"/>
    <path d="M23.5 7.919c0 3-2.458 5.44-5.5 5.44s-5.5-2.44-5.5-5.44c0-3 2.458-5.44 5.5-5.44s5.5 2.44 5.5 5.44z" fill="#FA5769" stroke="#F3F4F5"/>
</svg>
